<svg width="100" height="100" viewBox="0 0 100 100" fill="none" xmlns="http://www.w3.org/2000/svg">
<rect width="100" height="100" fill="black"/>
<rect x="17" width="19" height="100" fill="#F6330F"/>
<path d="M22.76 72V23.38H63.492C68.524 23.38 72.4227 24.6493 75.188 27.188C77.9987 29.7267 79.404 33.58 79.404 38.748C79.404 43.1453 78.384 46.5907 76.344 49.084C74.304 51.5773 71.4027 53.1413 67.64 53.776L78.86 72H66.484L56.08 54.116H33.64V72H22.76ZM62.2 32.22H33.64V45.208L62.2 45.276C64.1947 45.276 65.7133 44.7773 66.756 43.78C67.844 42.7827 68.388 41.1053 68.388 38.748C68.388 36.3453 67.844 34.668 66.756 33.716C65.7133 32.7187 64.1947 32.22 62.2 32.22Z" fill="white"/>
</svg>
